<svg width="72" height="86" viewBox="0 0 72 86" fill="none" xmlns="http://www.w3.org/2000/svg">
<g filter="url(#filter0_d_0_1)">
<path d="M23 27H35C38.866 27 42 30.134 42 34V46C42 49.866 38.866 53 35 53H23C19.134 53 16 49.866 16 46V34C16 30.134 19.134 27 23 27Z" fill="#735BF2"/>
</g>
<path fill-rule="evenodd" clip-rule="evenodd" d="M29.4305 37.7099C27.9303 37.7099 26.7099 38.9303 26.7099 40.4305C26.7099 41.9306 27.9303 43.151 29.4305 43.151C30.9306 43.151 32.1511 41.9306 32.1511 40.4305C32.1511 38.9303 30.9306 37.7099 29.4305 37.7099ZM29.4305 34C32.9819 34 35.8609 36.879 35.8609 40.4305C35.8609 43.9819 32.9819 46.8609 29.4305 46.8609C25.879 46.8609 23 43.9819 23 40.4305C23 36.879 25.879 34 29.4305 34Z" fill="white"/>
<defs>
<filter id="filter0_d_0_1" x="-14" y="0" width="86" height="86" filterUnits="userSpaceOnUse" color-interpolation-filters="sRGB">
<feFlood flood-opacity="0" result="BackgroundImageFix"/>
<feColorMatrix in="SourceAlpha" type="matrix" values="0 0 0 0 0 0 0 0 0 0 0 0 0 0 0 0 0 0 127 0" result="hardAlpha"/>
<feOffset dy="3"/>
<feGaussianBlur stdDeviation="15"/>
<feColorMatrix type="matrix" values="0 0 0 0 0 0 0 0 0 0 0 0 0 0 0 0 0 0 0.0784314 0"/>
<feBlend mode="normal" in2="BackgroundImageFix" result="effect1_dropShadow_0_1"/>
<feBlend mode="normal" in="SourceGraphic" in2="effect1_dropShadow_0_1" result="shape"/>
</filter>
</defs>
</svg>
